<svg width="42" height="38" viewBox="0 0 42 38" fill="none" xmlns="http://www.w3.org/2000/svg">
<g id="Group">
<path id="Vector" d="M28.473 18.908C28.3856 18.9779 28.3372 18.994 28.3278 18.9564C27.4771 18.9416 26.6265 18.9342 25.7758 18.9342C24.577 18.9342 23.7277 18.8959 23.2278 18.8193C21.2832 18.5223 19.6288 17.7166 18.2648 16.4023C15.4681 13.7065 14.6302 10.3299 15.751 6.27273C15.88 6.0362 16.005 5.78624 16.126 5.52284C17.4463 2.67849 19.8674 0.821902 22.9375 0.140549C23.3071 0.0585716 23.9454 0.0162388 24.8525 0.013551C29.1664 -0.00123178 33.4346 -0.00391975 37.6571 0.0054875C37.8211 0.0054875 37.8661 0.0787296 37.7922 0.225214L28.473 18.908Z" fill="#F500F5"/>
<path id="Vector_2" d="M15.751 6.27344C14.6302 10.3306 15.4681 13.7072 18.2648 16.403C19.6288 17.7173 21.2831 18.523 23.2277 18.82C23.7277 18.8966 24.577 18.9349 25.7758 18.9349C26.6264 18.9349 27.4771 18.9423 28.3278 18.9571L18.8917 38.0007L0.108104 37.9947C0.0896412 37.9945 0.071515 37.9897 0.0554287 37.9806C0.0393425 37.9716 0.0258242 37.9586 0.0161477 37.9429C0.00647116 37.9271 0.000953335 37.9092 0.000112865 37.8908C-0.000727604 37.8723 0.00313678 37.854 0.0113431 37.8374L15.751 6.27344Z" fill="#4141F9"/>
<path id="Vector_3" d="M18.8916 38.0006L28.3277 18.957C28.3371 18.9947 28.3855 18.9785 28.4729 18.9086C29.6649 18.8992 30.8442 18.8945 32.0107 18.8945C33.2242 18.8959 34.4922 19.2003 35.8146 19.8077C40.1466 21.7994 42.2592 26.7402 40.8582 31.2919C39.8684 34.5032 37.1692 37.0512 33.8249 37.7829C33.161 37.9281 32.1457 38.0006 30.779 38.0006C26.8548 37.9993 22.8924 37.9993 18.8916 38.0006Z" fill="#01F5F5"/>
</g>
</svg>
