<svg width="24" height="24" viewBox="0 0 24 24" fill="none" xmlns="http://www.w3.org/2000/svg">
<path fill-rule="evenodd" clip-rule="evenodd" d="M12 2C17.5228 2 22 6.47715 22 12C22 17.5228 17.5228 22 12 22C6.47715 22 2 17.5228 2 12C2 6.47715 6.47715 2 12 2ZM12 4C7.58172 4 4 7.58172 4 12C4 16.4183 7.58172 20 12 20C16.4183 20 20 16.4183 20 12C20 7.58172 16.4183 4 12 4ZM14.9529 8.71077C15.334 8.32113 15.9612 8.322 16.3411 8.71269V8.71269C16.7077 9.0896 16.7071 9.69001 16.3397 10.0662L10.544 16L7.65726 13.0318C7.29134 12.6556 7.29134 12.0565 7.65726 11.6803V11.6803C8.0378 11.289 8.66623 11.2889 9.04685 11.6801L10.544 13.219L14.9529 8.71077Z" fill="#1FD286"/>
</svg>
