<svg width="24" height="24" viewBox="0 0 24 24" fill="none" xmlns="http://www.w3.org/2000/svg">
<path fill-rule="evenodd" clip-rule="evenodd" d="M13.3287 3.51497C13.3873 3.56703 13.4428 3.62249 13.4948 3.68106L19.4948 10.4311C19.8202 10.7972 20 11.27 20 11.7598V18.9994C20 20.104 19.1046 20.9994 18 20.9994H14.002C14.0013 20.9994 14.0007 20.9994 14 20.9994H10C9.99934 20.9994 9.99868 20.9994 9.99803 20.9994H6C4.89543 20.9994 4 20.104 4 18.9994V11.7598C4 11.27 4.17976 10.7972 4.50518 10.4311L10.5052 3.68106C11.239 2.85549 12.5032 2.78113 13.3287 3.51497ZM11 18.9994H13V14.9994H11V18.9994ZM15 18.9994V13.9994C15 13.4471 14.5523 12.9994 14 12.9994H10C9.44772 12.9994 9 13.4471 9 13.9994V18.9994H6V11.7598L12 5.00979L18 11.7598V18.9994H15Z" fill="#7E84A3"/>
</svg>
